<mxfile host="app.diagrams.net" modified="2023-05-19T20:19:35.891Z" agent="Mozilla/5.0 (Windows NT 10.0; Win64; x64) AppleWebKit/537.36 (KHTML, like Gecko) Chrome/112.0.0.0 Safari/537.36" etag="213MryaU4RL1nabsXacK" version="21.3.2" type="github">
  <diagram id="R2lEEEUBdFMjLlhIrx00" name="Page-1">
    <mxGraphModel dx="1434" dy="796" grid="1" gridSize="10" guides="1" tooltips="1" connect="1" arrows="1" fold="1" page="1" pageScale="1" pageWidth="850" pageHeight="1100" math="0" shadow="0" extFonts="Permanent Marker^https://fonts.googleapis.com/css?family=Permanent+Marker">
      <root>
        <mxCell id="0" />
        <mxCell id="1" parent="0" />
        <mxCell id="iWZktDrXZ-UKNppFpViA-2" value="&lt;b&gt;Azure PubSub&lt;/b&gt;&lt;br&gt;&lt;i&gt;Topic: FollowUpEscalations&lt;/i&gt;" style="rounded=0;whiteSpace=wrap;html=1;" vertex="1" parent="1">
          <mxGeometry x="240" y="90" width="120" height="60" as="geometry" />
        </mxCell>
        <mxCell id="iWZktDrXZ-UKNppFpViA-5" style="edgeStyle=orthogonalEdgeStyle;rounded=0;orthogonalLoop=1;jettySize=auto;html=1;exitX=0.5;exitY=0;exitDx=0;exitDy=0;entryX=0;entryY=0.5;entryDx=0;entryDy=0;" edge="1" parent="1" source="iWZktDrXZ-UKNppFpViA-3" target="iWZktDrXZ-UKNppFpViA-2">
          <mxGeometry relative="1" as="geometry" />
        </mxCell>
        <mxCell id="iWZktDrXZ-UKNppFpViA-3" value="&lt;b&gt;SendCtiFollowups&lt;/b&gt;&lt;br&gt;&lt;i&gt;Tidal Job&lt;/i&gt;" style="rounded=0;whiteSpace=wrap;html=1;" vertex="1" parent="1">
          <mxGeometry x="40" y="240" width="160" height="80" as="geometry" />
        </mxCell>
        <mxCell id="iWZktDrXZ-UKNppFpViA-8" style="edgeStyle=orthogonalEdgeStyle;rounded=0;orthogonalLoop=1;jettySize=auto;html=1;exitX=0.5;exitY=0;exitDx=0;exitDy=0;entryX=1;entryY=0.5;entryDx=0;entryDy=0;" edge="1" parent="1" source="iWZktDrXZ-UKNppFpViA-10" target="iWZktDrXZ-UKNppFpViA-2">
          <mxGeometry relative="1" as="geometry" />
        </mxCell>
        <mxCell id="iWZktDrXZ-UKNppFpViA-6" value="&lt;b&gt;CtiAdminApi&lt;/b&gt;" style="rounded=0;whiteSpace=wrap;html=1;" vertex="1" parent="1">
          <mxGeometry x="400" y="240" width="160" height="80" as="geometry" />
        </mxCell>
        <mxCell id="iWZktDrXZ-UKNppFpViA-7" value="" style="endArrow=classic;html=1;rounded=0;exitX=0.5;exitY=1;exitDx=0;exitDy=0;entryX=0.5;entryY=0;entryDx=0;entryDy=0;" edge="1" parent="1" source="iWZktDrXZ-UKNppFpViA-10" target="iWZktDrXZ-UKNppFpViA-6">
          <mxGeometry width="50" height="50" relative="1" as="geometry">
            <mxPoint x="400" y="430" as="sourcePoint" />
            <mxPoint x="450" y="380" as="targetPoint" />
          </mxGeometry>
        </mxCell>
        <mxCell id="iWZktDrXZ-UKNppFpViA-10" value="Dapr Sidecar" style="rounded=1;whiteSpace=wrap;html=1;" vertex="1" parent="1">
          <mxGeometry x="420" y="180" width="120" height="40" as="geometry" />
        </mxCell>
      </root>
    </mxGraphModel>
  </diagram>
</mxfile>
